# xmcd
#
# Track frame offsets:
#	150
#	13181
#	26722
#	38459
#	52825
#	63859
#	75213
#	85455
#	99970
#	116373
#	129668
#	142254
#	156890
#	172732
#
# Disc length: 2513 seconds
#
# Revision: 1
# Processed by: cddbd v1.5.2PL0 Copyright (c) Steve Scherf et al.
# Submitted via: EasyCDDAExtractor 16.1.0.1
#
DISCID=a209cf0e
DTITLE=DIE GRUBERTALER - SCHNEIDIG DRAUF
DYEAR=1900
DGENRE=Country
TTITLE0=SCHNEIDIG MIT AN JODLER
TTITLE1=SO WIE DU IS KOANE
TTITLE2=DU DARFST BEIM AUTOFAHRN NIT
TTITLE3=ADIO CIAO VENEZIA
TTITLE4=DER HERRGOTT STEHT AUF VOLKSMUSIK
TTITLE5=OAN TRINK MA NO
TTITLE6=DER ZAUBER DER FRAUEN
TTITLE7=ICH WUENSCHTE DU WAERST HIER
TTITLE8=HEY REINI SPIEL INS OANS
TTITLE9=KINDER DER BERGE
TTITLE10=SCHNEIDIG DRAUF MIT VOLKSMUSIK
TTITLE11=ROSMARIE
TTITLE12=DER REBELL AUS TIROL
TTITLE13=DEM LAND TIROL DIE TREUE
EXTD=
EXTT0=
EXTT1=
EXTT2=
EXTT3=
EXTT4=
EXTT5=
EXTT6=
EXTT7=
EXTT8=
EXTT9=
EXTT10=
EXTT11=
EXTT12=
EXTT13=
PLAYORDER=
